<!-- <svg xmlns="http://www.w3.org/2000/svg" viewBox="0 0 1440 300"><path fill="#0079ff" fill-opacity="1" d="M0,320L48,272C96,224,192,128,288,117.3C384,107,480,181,576,186.7C672,192,768,128,864,96C960,64,1056,64,1152,106.7C1248,149,1344,235,1392,277.3L1440,320L1440,0L1392,0C1344,0,1248,0,1152,0C1056,0,960,0,864,0C768,0,672,0,576,0C480,0,384,0,288,0C192,0,96,0,48,0L0,0Z"></path></svg> -->
<svg xmlns="http://www.w3.org/2000/svg" viewBox="0 0 1440 330"><path fill="#0079ff" fill-opacity="1" d="M0,224L120,234.7C240,245,480,267,720,256C960,245,1200,203,1320,181.3L1440,160L1440,0L1320,0C1200,0,960,0,720,0C480,0,240,0,120,0L0,0Z"></path></svg>